<svg id="Layer_1" data-name="Layer 1" xmlns="http://www.w3.org/2000/svg" viewBox="0 0 1253.52 355.71"><defs><style>.cls-1{fill:#1a237e;}.cls-2{fill:#fff;}.cls-3{fill:#ff1744;}.cls-4{fill:#f90;}.cls-5{fill:#ffd600;}.cls-6{fill:#00c853;}.cls-7{fill:#2962ff;}</style></defs><title>cc</title><rect class="cls-1" width="1253.52" height="355.71"/><path class="cls-2" d="M1241.39,536.93H41.14V219.24H1241.39Zm-1192.25-8H1233.39V227.24H49.14Z" transform="translate(-14.51 -200.23)"/><polygon class="cls-2" points="1148.87 143.84 1158.26 162.88 1179.27 165.93 1164.07 180.74 1167.65 201.66 1148.87 191.79 1130.08 201.66 1133.67 180.74 1118.47 165.93 1139.47 162.88 1148.87 143.84"/><polygon class="cls-2" points="113.04 143.84 122.43 162.88 143.43 165.93 128.24 180.74 131.82 201.66 113.04 191.79 94.25 201.66 97.84 180.74 82.64 165.93 103.64 162.88 113.04 143.84"/><path class="cls-3" d="M273.48,296.76V316.5q-9.17-4.12-15.36-4.12a26.61,26.61,0,0,0-14.55,3.85q-6.08,3.85-10,11.87t-5.84,20.32a194.07,194.07,0,0,0-1.89,29.08q0,60.37,33.58,60.37,5.84,0,14.1-3.38v20.16a41.38,41.38,0,0,1-19.25,4.43q-53.75,0-53.75-80.84,0-43.69,13.12-65t40.17-21.32A43.8,43.8,0,0,1,273.48,296.76Z" transform="translate(-14.51 -200.23)"/><path class="cls-4" d="M380.74,379.61q0,43.17-10.43,61.32t-35,18.15q-25.78,0-36.33-19.52-10.43-19.1-10.43-67.86,0-43.48,10.31-61.53T334.21,292q22.23,0,33,14,7.1,9.39,10.31,26.7Q380.74,348.79,380.74,379.61Zm-25,2.32q0-42.32-4.13-56.15t-16.85-13.93q-12.72,0-17,12.77t-4.13,51.71q0,35.78,4.35,49.6Q322.52,439,334.79,439q12,0,16.5-12.24T355.76,381.93Z" transform="translate(-14.51 -200.23)"/><path class="cls-5" d="M404.35,294.12h23.84V438.5h39v18.57h-62.8Z" transform="translate(-14.51 -200.23)"/><path class="cls-6" d="M557,376.86q0,43.91-9.17,63.32Q538.77,459,517,459t-30.94-18.89Q477,421.72,477,375.6t9.05-64.48q9.05-19,30.83-19,20.17,0,29.8,16.67Q557,326.42,557,376.86Zm-24.29,0q0-36.94-3.44-51.08t-12.49-14q-9.05,0-12.61,13.93t-3.44,50.13q0,36.2,3.44,50.24T516.77,440q8.94,0,12.38-13.83Q532.69,413,532.7,376.86Z" transform="translate(-14.51 -200.23)"/><path class="cls-7" d="M579.22,294.12h31.4q19.48,0,29,8.55,12,11.08,12,33.88,0,17.52-6.36,28.13a27,27,0,0,1-18.16,13.14l32.55,79.26H635.49l-32.43-79.79v79.79H579.22Zm23.84,72.19q13.86,0,19.6-5.91t5.73-19.95a60.36,60.36,0,0,0-1.2-13,22.29,22.29,0,0,0-3.78-8.76,15.07,15.07,0,0,0-6.65-5,26.68,26.68,0,0,0-9.68-1.58h-4Z" transform="translate(-14.51 -200.23)"/><path class="cls-2" d="M781.46,296.76V316.5q-9.17-4.12-15.36-4.12a26.61,26.61,0,0,0-14.55,3.85q-6.08,3.85-10,11.87t-5.84,20.32a194.07,194.07,0,0,0-1.89,29.08q0,60.37,33.58,60.37,5.84,0,14.1-3.38v20.16a41.38,41.38,0,0,1-19.25,4.43q-53.75,0-53.75-80.84,0-43.69,13.12-65t40.17-21.32A43.8,43.8,0,0,1,781.46,296.76Z" transform="translate(-14.51 -200.23)"/><path class="cls-2" d="M888.72,379.61q0,43.17-10.43,61.32t-35,18.15q-25.78,0-36.33-19.52-10.43-19.1-10.43-67.86,0-43.48,10.31-61.53T842.19,292q22.23,0,33,14,7.1,9.39,10.31,26.7Q888.72,348.79,888.72,379.61Zm-25,2.32q0-42.32-4.13-56.15t-16.85-13.93q-12.72,0-17,12.77t-4.13,51.71q0,35.78,4.35,49.6Q830.5,439,842.77,439q12,0,16.5-12.24T863.74,381.93Z" transform="translate(-14.51 -200.23)"/><path class="cls-2" d="M912.33,294.12h29.34q13.41,0,22.58,2.74a36.08,36.08,0,0,1,15.13,9.39q10,10.13,14.21,26.38,4.24,15.73,4.24,45.06,0,26.91-4.7,43.9-4.58,16.25-15.13,24.8-13,10.66-46.41,10.66H912.33Zm23.84,143.74q21.77,0,29.11-12.14,7.56-12.13,7.56-47.17,0-37.68-7.22-51.82t-26.47-14.14h-3Z" transform="translate(-14.51 -200.23)"/><path class="cls-2" d="M1021.54,294.12h63.37V312.7h-39.54v51.61h35.07v18.57h-35.07V438.5h39.54v18.57h-63.37Z" transform="translate(-14.51 -200.23)"/></svg>