<?xml version="1.0" encoding="utf-8" ?>	<!-- Generator: Assembly 1.8 - http://assemblyapp.co -->	<svg version="1.1" xmlns="http://www.w3.org/2000/svg" xmlns:xlink="http://www.w3.org/1999/xlink" width="1536.00" height="2048.00" viewBox="0 0 1536.0 2048.0">		<rect x="0" y="0" width="1536.00" height="2048.00" fill="#ffffff" />		<g id="document" transform="matrix(1,0,0,1,768.0,1024.0)">			<g>				<path d="M-152.111,-148.746 C-142.673,-148.746 -135.595,-148.746 -130.876,-148.746 C-130.876,-158.184 -130.876,-165.311 -130.876,-170.126 C-130.876,-173.015 -131.887,-175.519 -133.91,-177.638 C-136.028,-179.661 -138.532,-180.672 -141.421,-180.672 C-160.394,-180.672 -174.599,-180.672 -184.037,-180.672 C-187.022,-180.672 -189.526,-179.661 -191.549,-177.638 C-193.667,-175.519 -194.727,-173.015 -194.727,-170.126 C-194.727,-158.281 -194.727,-147.88 -194.727,-138.923 C-194.727,-130.159 -194.727,-122.84 -194.727,-116.965 C-194.727,-102.712 -194.727,-92.0222 -194.727,-84.8956 C-194.727,-81.9101 -193.667,-79.4061 -191.549,-77.3837 C-189.526,-75.265 -187.022,-74.2056 -184.037,-74.2056 C-165.161,-74.2056 -150.956,-74.2056 -141.421,-74.2056 C-138.532,-74.2056 -136.028,-75.265 -133.91,-77.3837 C-131.887,-79.4061 -130.876,-81.9101 -130.876,-84.8956 C-130.876,-94.3335 -130.876,-101.412 -130.876,-106.131 C-140.314,-106.131 -147.392,-106.131 -152.111,-106.131 C-152.111,-101.412 -152.111,-97.8487 -152.111,-95.4411 C-161.549,-95.4411 -168.676,-95.4411 -173.491,-95.4411 C-173.491,-123.851 -173.491,-145.183 -173.491,-159.436 C-163.957,-159.436 -156.83,-159.436 -152.111,-159.436 C-152.111,-154.717 -152.111,-151.154 -152.111,-148.746 Z M-45.6452,-170.126 C-45.6452,-173.015 -46.6564,-175.519 -48.6788,-177.638 C-50.7976,-179.661 -53.3015,-180.672 -56.1907,-180.672 C-75.163,-180.672 -89.3681,-180.672 -98.8061,-180.672 C-101.792,-180.672 -104.296,-179.661 -106.318,-177.638 C-108.437,-175.519 -109.496,-173.015 -109.496,-170.126 C-109.496,-158.281 -109.496,-147.88 -109.496,-138.923 C-109.496,-130.159 -109.496,-122.84 -109.496,-116.965 C-109.496,-102.712 -109.496,-92.0222 -109.496,-84.8956 C-109.496,-81.9101 -108.437,-79.4061 -106.318,-77.3837 C-104.296,-75.265 -101.792,-74.2056 -98.8061,-74.2056 C-79.9301,-74.2056 -65.725,-74.2056 -56.1907,-74.2056 C-53.3015,-74.2056 -50.7976,-75.265 -48.6788,-77.3837 C-46.6564,-79.4061 -45.6452,-81.9101 -45.6452,-84.8956 C-45.6452,-122.744 -45.6452,-151.154 -45.6452,-170.126 Z M-88.2606,-95.4411 C-88.2606,-109.694 -88.2606,-120.384 -88.2606,-127.511 C-88.2606,-141.668 -88.2606,-152.31 -88.2606,-159.436 C-78.7263,-159.436 -71.5997,-159.436 -66.8807,-159.436 C-66.8807,-132.856 -66.8807,-112.921 -66.8807,-99.6304 C-66.8807,-97.8006 -66.8807,-96.4041 -66.8807,-95.4411 C-76.3186,-95.4411 -83.4453,-95.4411 -88.2606,-95.4411 Z M39.5856,-170.126 C39.5856,-173.015 38.5743,-175.519 36.5519,-177.638 C34.4332,-179.661 31.9292,-180.672 29.0401,-180.672 C14.7868,-180.672 4.09682,-180.672 -3.02982,-180.672 C-4.18549,-180.672 -5.05225,-180.672 -5.63008,-180.672 C-13.9124,-180.672 -20.1241,-180.672 -24.2653,-180.672 C-24.2653,-156.981 -24.2653,-136.275 -24.2653,-118.554 C-24.2653,-100.834 -24.2653,-86.0512 -24.2653,-74.2056 C-19.5463,-74.2056 -15.983,-74.2056 -13.5753,-74.2056 C-8.85633,-74.2056 -5.34117,-74.2056 -3.02982,-74.2056 C11.2235,-74.2056 21.9134,-74.2056 29.0401,-74.2056 C31.9292,-74.2056 34.4332,-75.265 36.5519,-77.3837 C38.5743,-79.4061 39.5856,-81.9101 39.5856,-84.8956 C39.5856,-122.744 39.5856,-151.154 39.5856,-170.126 Z M-3.02982,-95.4411 C-3.02982,-109.694 -3.02982,-120.384 -3.02982,-127.511 C-3.02982,-141.668 -3.02982,-152.31 -3.02982,-159.436 C6.50447,-159.436 13.6311,-159.436 18.3501,-159.436 C18.3501,-132.856 18.3501,-112.921 18.3501,-99.6304 C18.3501,-97.8006 18.3501,-96.4041 18.3501,-95.4411 C8.91211,-95.4411 1.78547,-95.4411 -3.02982,-95.4411 Z M122.505,-159.436 C122.505,-163 122.505,-170.078 122.505,-180.672 C115.475,-180.672 101.27,-180.672 79.8896,-180.672 C76.4226,-180.672 69.3441,-180.672 58.6541,-180.672 C58.6541,-177.109 58.6541,-170.03 58.6541,-159.436 C58.6541,-155.873 58.6541,-148.746 58.6541,-138.056 C58.6541,-134.589 58.6541,-127.511 58.6541,-116.821 C58.6541,-114.51 58.6541,-111.572 58.6541,-108.009 C58.6541,-104.446 58.6541,-100.256 58.6541,-95.4411 C58.6541,-90.7221 58.6541,-83.6436 58.6541,-74.2056 C63.3731,-74.2056 70.4516,-74.2056 79.8896,-74.2056 C89.4239,-74.2056 103.629,-74.2056 122.505,-74.2056 C122.505,-78.9246 122.505,-86.0031 122.505,-95.4411 C113.067,-95.4411 98.8619,-95.4411 79.8896,-95.4411 C79.8896,-100.256 79.8896,-107.383 79.8896,-116.821 C87.0162,-116.821 97.7062,-116.821 111.959,-116.821 C111.959,-121.54 111.959,-128.618 111.959,-138.056 C104.833,-138.056 94.1429,-138.056 79.8896,-138.056 C79.8896,-142.872 79.8896,-149.998 79.8896,-159.436 C89.4239,-159.436 103.629,-159.436 122.505,-159.436 Z " fill="#28650a" fill-opacity="1.00" />				<path d="M188.937,-148.998 C198.375,-149.036 205.453,-149.064 210.172,-149.083 C210.134,-158.521 210.105,-165.648 210.086,-170.463 C210.074,-173.352 209.053,-175.852 207.022,-177.963 C204.895,-179.976 202.387,-180.978 199.498,-180.966 C180.526,-180.89 166.321,-180.832 156.883,-180.794 C153.898,-180.782 151.398,-179.761 149.384,-177.731 C147.273,-175.603 146.224,-173.095 146.236,-170.206 C146.274,-160.768 146.307,-152.486 146.336,-145.359 C146.365,-138.233 146.388,-132.31 146.407,-127.591 C146.419,-124.605 147.489,-122.058 149.616,-119.947 C151.647,-117.933 154.155,-116.932 157.14,-116.944 C171.297,-117.001 181.939,-117.044 189.065,-117.073 C189.103,-107.635 189.132,-100.508 189.151,-95.6929 C179.714,-95.6549 172.587,-95.6262 167.772,-95.6068 C167.752,-100.422 167.738,-103.985 167.729,-106.297 C158.291,-106.259 151.212,-106.23 146.493,-106.211 C146.531,-96.7733 146.56,-89.6948 146.579,-84.9759 C146.591,-81.9904 147.66,-79.4908 149.787,-77.4769 C151.818,-75.3663 154.326,-74.317 157.312,-74.329 C176.188,-74.405 190.393,-74.4622 199.927,-74.5006 C202.816,-74.5122 205.316,-75.5817 207.426,-77.7089 C209.44,-79.7395 210.441,-82.2475 210.429,-85.2329 C210.353,-104.109 210.296,-118.314 210.258,-127.848 C210.246,-130.737 209.225,-133.237 207.194,-135.348 C205.067,-137.361 202.559,-138.363 199.67,-138.351 C185.417,-138.294 174.727,-138.251 167.6,-138.222 C167.562,-147.756 167.533,-154.883 167.514,-159.602 C177.048,-159.64 184.175,-159.669 188.894,-159.688 C188.913,-154.969 188.927,-151.405 188.937,-148.998 Z M274.167,-149.341 C283.605,-149.379 290.683,-149.407 295.402,-149.426 C295.364,-158.864 295.336,-165.991 295.316,-170.806 C295.305,-173.695 294.283,-176.195 292.252,-178.306 C290.125,-180.32 287.617,-181.321 284.728,-181.309 C265.756,-181.233 251.551,-181.176 242.113,-181.138 C239.128,-181.126 236.628,-180.104 234.614,-178.074 C232.503,-175.946 231.454,-173.438 231.466,-170.549 C231.514,-158.704 231.555,-148.303 231.591,-139.346 C231.627,-130.582 231.656,-123.263 231.68,-117.389 C231.737,-103.135 231.78,-92.4456 231.809,-85.319 C231.821,-82.3335 232.89,-79.8339 235.017,-77.82 C237.048,-75.7094 239.556,-74.6602 242.542,-74.6722 C261.418,-74.7482 275.623,-74.8054 285.157,-74.8437 C288.046,-74.8554 290.546,-75.9248 292.656,-78.052 C294.67,-80.0826 295.671,-82.5906 295.659,-85.5761 C295.621,-95.014 295.593,-102.092 295.574,-106.811 C286.136,-106.773 279.057,-106.745 274.339,-106.726 C274.358,-102.007 274.372,-98.4436 274.382,-96.036 C264.944,-95.998 257.817,-95.9693 253.002,-95.9499 C252.887,-124.36 252.802,-145.692 252.744,-159.945 C262.278,-159.983 269.405,-160.012 274.124,-160.031 C274.143,-155.312 274.157,-151.749 274.167,-149.341 Z M359.269,-181.609 C359.297,-174.579 359.354,-160.374 359.44,-138.994 C355.877,-138.98 348.75,-138.951 338.06,-138.908 C338.032,-146.035 337.974,-160.24 337.889,-181.523 C334.422,-181.509 327.343,-181.481 316.653,-181.438 C316.682,-174.407 316.739,-160.202 316.825,-138.823 C316.839,-135.356 316.867,-128.277 316.911,-117.587 C316.93,-112.868 316.953,-106.946 316.982,-99.819 C317.011,-92.6924 317.044,-84.4102 317.082,-74.9723 C321.801,-74.9913 328.879,-75.0198 338.317,-75.0578 C338.279,-84.4957 338.222,-98.7007 338.146,-117.673 C342.961,-117.692 350.088,-117.721 359.526,-117.759 C359.564,-108.321 359.621,-94.1159 359.697,-75.1438 C364.416,-75.1628 371.495,-75.1913 380.932,-75.2293 C380.894,-84.6672 380.837,-98.8722 380.761,-117.844 C380.742,-122.563 380.713,-129.642 380.675,-139.08 C380.637,-148.614 380.58,-162.819 380.504,-181.695 C375.785,-181.676 368.706,-181.647 359.269,-181.609 Z M465.776,-171.492 C465.765,-174.382 464.743,-176.881 462.712,-178.992 C460.586,-181.006 458.078,-182.007 455.188,-181.995 C436.216,-181.919 422.011,-181.862 412.573,-181.824 C409.588,-181.812 407.088,-180.79 405.074,-178.76 C402.964,-176.633 401.914,-174.124 401.926,-171.235 C401.974,-159.39 402.016,-148.989 402.052,-140.032 C402.087,-131.269 402.116,-123.95 402.14,-118.075 C402.197,-103.822 402.24,-93.1319 402.269,-86.0053 C402.281,-83.0198 403.351,-80.5201 405.477,-78.5063 C407.508,-76.3957 410.017,-75.3464 413.002,-75.3584 C431.878,-75.4344 446.083,-75.4916 455.617,-75.53 C458.506,-75.5416 461.006,-76.6111 463.116,-78.7383 C465.13,-80.7689 466.131,-83.2769 466.119,-86.2623 C465.967,-124.11 465.853,-152.52 465.776,-171.492 Z M423.462,-96.6362 C423.405,-110.889 423.362,-121.579 423.333,-128.706 C423.276,-142.863 423.233,-153.504 423.204,-160.631 C432.739,-160.669 439.865,-160.698 444.584,-160.717 C444.691,-134.137 444.771,-114.202 444.825,-100.912 C444.832,-99.0817 444.838,-97.6853 444.842,-96.7222 C435.404,-96.6843 428.277,-96.6556 423.462,-96.6362 Z M551.006,-171.836 C550.995,-174.725 549.973,-177.225 547.943,-179.335 C545.816,-181.349 543.308,-182.35 540.419,-182.338 C521.446,-182.262 507.241,-182.205 497.803,-182.167 C494.818,-182.155 492.318,-181.134 490.304,-179.103 C488.194,-176.976 487.144,-174.468 487.156,-171.578 C487.204,-159.733 487.246,-149.332 487.282,-140.376 C487.317,-131.612 487.346,-124.293 487.37,-118.418 C487.427,-104.165 487.471,-93.475 487.499,-86.3484 C487.511,-83.3629 488.581,-80.8633 490.708,-78.8494 C492.738,-76.7388 495.247,-75.6895 498.232,-75.7016 C517.108,-75.7776 531.313,-75.8347 540.847,-75.8731 C543.736,-75.8848 546.236,-76.9542 548.346,-79.0814 C550.36,-81.112 551.362,-83.62 551.35,-86.6055 C551.197,-124.453 551.083,-152.863 551.006,-171.836 Z M508.692,-96.9793 C508.635,-111.232 508.592,-121.922 508.563,-129.049 C508.506,-143.206 508.463,-153.848 508.434,-160.974 C517.969,-161.012 525.095,-161.041 529.814,-161.06 C529.921,-134.48 530.001,-114.545 530.055,-101.255 C530.062,-99.4249 530.068,-98.0284 530.072,-97.0654 C520.634,-97.0274 513.507,-96.9987 508.692,-96.9793 Z M593.922,-97.3224 C593.865,-111.576 593.75,-139.986 593.579,-182.553 C590.112,-182.539 583.034,-182.51 572.344,-182.467 C572.379,-173.607 572.433,-160.317 572.504,-142.597 C572.576,-124.877 572.665,-102.678 572.772,-76.0017 C573.639,-76.0051 575.421,-76.0123 578.117,-76.0232 C580.814,-76.034 586.111,-76.0554 594.008,-76.0871 C601.134,-76.1158 615.339,-76.173 636.623,-76.2587 C636.604,-80.9777 636.575,-88.0561 636.537,-97.494 C627.099,-97.456 612.894,-97.3988 593.922,-97.3224 Z " fill="#b68a09" fill-opacity="1.00" />			</g>			<path d="M-127.459,29.7552 C-127.459,25.1143 -128.145,20.8953 -129.516,17.0983 C-130.887,13.3012 -133.049,9.78536 -136.002,6.55081 C-139.378,2.89436 -143.86,0.0817132 -149.45,-1.88714 C-155.041,-3.856 -161.633,-4.84043 -169.227,-4.84043 C-173.235,-4.84043 -176.997,-4.68222 -180.513,-4.36579 C-184.028,-4.04937 -187.368,-3.68021 -190.533,-3.25831 L-190.533,66.8822 C-187.439,67.1634 -184.398,67.3392 -181.409,67.4096 C-178.421,67.4799 -175.309,67.515 -172.075,67.515 C-164.059,67.515 -157.115,66.4603 -151.243,64.3508 C-145.372,62.2413 -140.714,59.3583 -137.268,55.7019 C-133.541,51.6939 -130.975,47.387 -129.568,42.7813 C-128.162,38.1756 -127.459,33.8335 -127.459,29.7552 Z M-132.733,29.8607 C-132.733,34.5015 -133.489,38.8436 -135,42.8868 C-136.512,46.9299 -138.815,50.4458 -141.909,53.4342 C-145.003,56.4226 -148.976,58.7958 -153.828,60.5537 C-158.679,62.3116 -164.481,63.1906 -171.231,63.1906 C-174.114,63.1906 -176.768,63.1554 -179.194,63.0851 C-181.62,63.0148 -183.677,62.839 -185.364,62.5577 L-185.364,0.855192 C-183.536,0.503611 -181.321,0.187188 -178.72,-0.0940775 C-176.118,-0.375343 -173.094,-0.515975 -169.649,-0.515975 C-163.18,-0.515975 -157.607,0.257504 -152.931,1.80446 C-148.255,3.35142 -144.423,5.47849 -141.434,8.18567 C-138.446,10.8928 -136.249,14.0922 -134.842,17.7838 C-133.436,21.4754 -132.733,25.5011 -132.733,29.8607 Z M-109.001,66.8822 L-109.001,-4.20758 L-114.169,-4.20758 L-114.169,66.8822 L-109.001,66.8822 Z M-44.8725,66.8822 C-45.7163,65.3352 -46.5601,63.0499 -47.4039,60.0263 C-48.2477,57.0027 -49.3376,52.6783 -50.6736,47.053 C-51.5174,43.4669 -52.871,40.4081 -54.7344,37.8767 C-56.5977,35.3453 -59.0061,33.5874 -61.9594,32.603 L-61.9594,32.392 C-57.5998,31.056 -54.0664,28.8235 -51.3592,25.6944 C-48.652,22.5653 -47.2984,18.6452 -47.2984,13.934 C-47.2984,11.473 -47.7555,9.13493 -48.6696,6.91997 C-49.5837,4.70501 -50.8142,2.89436 -52.3612,1.48804 C-54.541,-0.62145 -57.2833,-2.20357 -60.5882,-3.25831 C-63.8931,-4.31305 -68.0769,-4.84043 -73.1397,-4.84043 C-75.882,-4.84043 -78.8353,-4.69979 -81.9995,-4.41853 C-85.1637,-4.13726 -87.9764,-3.75052 -90.4375,-3.25831 L-90.4375,66.8822 L-85.2692,66.8822 L-85.2692,34.2906 L-71.7685,34.2906 C-66.9167,34.2906 -63.2251,35.5914 -60.6937,38.1931 C-58.1623,40.7948 -56.2989,44.6622 -55.1035,49.7953 C-54.6113,52.0454 -54.1367,54.2077 -53.6796,56.282 C-53.2226,58.3563 -52.8007,60.2549 -52.4139,61.9776 C-52.0272,63.7004 -51.658,65.177 -51.3064,66.4075 C-50.9549,67.6381 -50.6384,68.4995 -50.3572,68.9917 L-44.8725,66.8822 Z M-52.4667,14.7778 C-52.4667,19.4187 -54.1718,23.1279 -57.5822,25.9054 C-60.9925,28.6829 -65.651,30.0716 -71.5575,30.0716 L-85.2692,30.0716 L-85.2692,0.538769 C-84.2848,0.257504 -82.773,-0.00618219 -80.7338,-0.252289 C-78.6946,-0.498396 -76.1984,-0.62145 -73.2451,-0.62145 C-70.4325,-0.62145 -67.7605,-0.357764 -65.2291,0.169609 C-62.6977,0.696981 -60.4827,1.57593 -58.5842,2.80647 C-56.6856,4.037 -55.1914,5.6367 -54.1015,7.60556 C-53.0116,9.57441 -52.4667,11.9652 -52.4667,14.7778 Z M-32.532,66.8822 L-32.532,-4.20758 L3.96215,-4.20758 L3.96215,0.116871 L-27.3638,0.116871 L-27.3638,27.2238 L4.27858,27.2238 L4.27858,31.5483 L-27.3638,31.5483 L-27.3638,62.5577 L9.9742,62.5577 L9.9742,66.8822 L-32.532,66.8822 Z M75.8957,64.0344 L74.3136,59.9209 C71.8525,61.1162 68.9871,62.0479 65.7174,62.7159 C62.4477,63.3839 59.055,63.718 55.5391,63.718 C49.9138,63.718 44.9917,62.8917 40.7727,61.2393 C36.5538,59.5869 33.0028,57.3367 30.1198,54.4889 C27.2368,51.6411 25.0746,48.2835 23.6331,44.4161 C22.1917,40.5487 21.4709,36.4352 21.4709,32.0756 C21.4709,27.2941 22.2268,22.8642 23.7386,18.7858 C25.2504,14.7075 27.5005,11.1917 30.489,8.2384 C33.4774,5.28512 37.169,2.98226 41.5638,1.32983 C45.9586,-0.322605 51.0389,-1.14882 56.8048,-1.14882 C60.18,-1.14882 63.3618,-0.814819 66.3503,-0.146815 C69.3387,0.52119 71.8877,1.38256 73.9972,2.43731 L75.6848,-1.88714 C74.4894,-2.44967 72.3447,-3.18799 69.2508,-4.10211 C66.1569,-5.01622 61.9028,-5.47327 56.4884,-5.47327 C49.8084,-5.47327 43.9545,-4.40095 38.9269,-2.2563 C33.8993,-0.111657 29.6979,2.70099 26.3227,6.18165 C22.9476,9.66231 20.3986,13.6176 18.6758,18.0475 C16.9531,22.4775 16.0917,27.0129 16.0917,31.6537 C16.0917,37.8416 17.1465,43.2208 19.2559,47.7913 C21.3654,52.3619 24.1605,56.159 27.6412,59.1826 C31.1218,62.2062 35.1298,64.4563 39.6652,65.9329 C44.2006,67.4096 48.8591,68.1479 53.6406,68.1479 C58.7737,68.1479 63.2564,67.7084 67.0886,66.8294 C70.9208,65.9505 73.8565,65.0188 75.8957,64.0344 Z M135.594,0.116871 L135.594,-4.20758 L77.4778,-4.20758 L77.4778,0.116871 L103.952,0.116871 L103.952,66.8822 L109.12,66.8822 L109.12,0.116871 L135.594,0.116871 Z M208.793,30.388 C208.793,25.2549 207.932,20.5086 206.209,16.149 C204.487,11.7894 202.061,8.00987 198.932,4.81048 C195.803,1.61109 192.076,-0.902715 187.751,-2.73094 C183.427,-4.55916 178.663,-5.47327 173.46,-5.47327 C168.397,-5.47327 163.668,-4.55916 159.273,-2.73094 C154.878,-0.902715 151.064,1.68141 147.829,5.02143 C144.595,8.36146 142.046,12.3519 140.182,16.9928 C138.319,21.6337 137.387,26.7316 137.387,32.2866 C137.387,37.49 138.284,42.2891 140.077,46.6838 C141.87,51.0786 144.349,54.8581 147.513,58.0223 C150.677,61.1866 154.421,63.6652 158.746,65.4583 C163.07,67.2513 167.764,68.1479 172.827,68.1479 C177.468,68.1479 181.95,67.3392 186.275,65.722 C190.599,64.1047 194.431,61.6964 197.771,58.497 C201.111,55.2976 203.783,51.3423 205.787,46.6311 C207.791,41.9199 208.793,36.5055 208.793,30.388 Z M203.309,30.8099 C203.309,35.5211 202.606,39.8983 201.199,43.9415 C199.793,47.9847 197.771,51.4829 195.135,54.4362 C192.498,57.3895 189.281,59.7099 185.484,61.3975 C181.687,63.0851 177.432,63.9289 172.721,63.9289 C168.08,63.9289 163.897,63.0499 160.17,61.292 C156.443,59.5341 153.296,57.1961 150.73,54.278 C148.163,51.3599 146.177,47.9847 144.771,44.1524 C143.364,40.3202 142.661,36.2946 142.661,32.0756 C142.661,27.716 143.294,23.5146 144.56,19.4714 C145.825,15.4282 147.741,11.8773 150.308,8.81851 C152.874,5.75975 156.056,3.31626 159.853,1.48804 C163.65,-0.340185 168.08,-1.2543 173.143,-1.2543 C178.206,-1.2543 182.618,-0.305026 186.38,1.59351 C190.142,3.49205 193.271,5.9707 195.767,9.02946 C198.264,12.0882 200.145,15.5161 201.41,19.3132 C202.676,23.1103 203.309,26.9425 203.309,30.8099 Z M177.468,30.8099 C177.468,29.4036 177.063,28.2258 176.255,27.2765 C175.446,26.3273 174.374,25.8526 173.038,25.8526 C171.702,25.8526 170.629,26.3273 169.821,27.2765 C169.012,28.2258 168.573,29.4036 168.502,30.8099 C168.502,32.0756 168.907,33.2007 169.715,34.1851 C170.524,35.1695 171.596,35.6618 172.932,35.6618 C174.339,35.6618 175.446,35.1695 176.255,34.1851 C177.063,33.2007 177.468,32.0756 177.468,30.8099 Z M267.648,66.8822 C266.804,65.3352 265.961,63.0499 265.117,60.0263 C264.273,57.0027 263.183,52.6783 261.847,47.053 C261.003,43.4669 259.65,40.4081 257.786,37.8767 C255.923,35.3453 253.515,33.5874 250.561,32.603 L250.561,32.392 C254.921,31.056 258.454,28.8235 261.162,25.6944 C263.869,22.5653 265.222,18.6452 265.222,13.934 C265.222,11.473 264.765,9.13493 263.851,6.91997 C262.937,4.70501 261.706,2.89436 260.16,1.48804 C257.98,-0.62145 255.237,-2.20357 251.933,-3.25831 C248.628,-4.31305 244.444,-4.84043 239.381,-4.84043 C236.639,-4.84043 233.685,-4.69979 230.521,-4.41853 C227.357,-4.13726 224.544,-3.75052 222.083,-3.25831 L222.083,66.8822 L227.252,66.8822 L227.252,34.2906 L240.752,34.2906 C245.604,34.2906 249.296,35.5914 251.827,38.1931 C254.358,40.7948 256.222,44.6622 257.417,49.7953 C257.909,52.0454 258.384,54.2077 258.841,56.282 C259.298,58.3563 259.72,60.2549 260.107,61.9776 C260.494,63.7004 260.863,65.177 261.214,66.4075 C261.566,67.6381 261.882,68.4995 262.164,68.9917 L267.648,66.8822 Z M260.054,14.7778 C260.054,19.4187 258.349,23.1279 254.939,25.9054 C251.528,28.6829 246.87,30.0716 240.963,30.0716 L227.252,30.0716 L227.252,0.538769 C228.236,0.257504 229.748,-0.00618219 231.787,-0.252289 C233.826,-0.498396 236.322,-0.62145 239.276,-0.62145 C242.088,-0.62145 244.76,-0.357764 247.292,0.169609 C249.823,0.696981 252.038,1.57593 253.937,2.80647 C255.835,4.037 257.329,5.6367 258.419,7.60556 C259.509,9.57441 260.054,11.9652 260.054,14.7778 Z M328.507,-4.20758 L322.6,-5.26232 L308.783,17.942 C307.096,20.825 305.496,23.4619 303.984,25.8526 C302.472,28.2434 301.119,30.5638 299.923,32.8139 L299.712,32.8139 C298.376,30.3529 297.005,27.9973 295.599,25.7472 C294.193,23.497 292.681,20.8953 291.064,17.942 L277.879,-5.26232 L271.973,-4.20758 L296.865,36.5055 L296.865,66.8822 L302.033,66.8822 L302.033,36.7165 L328.507,-4.20758 Z M339.582,63.2961 C339.582,61.8897 339.177,60.7119 338.369,59.7627 C337.56,58.8134 336.488,58.3388 335.152,58.3388 C333.816,58.3388 332.726,58.8134 331.882,59.7627 C331.038,60.7119 330.616,61.8897 330.616,63.2961 C330.546,64.5617 330.933,65.6868 331.777,66.6712 C332.62,67.6557 333.71,68.1479 335.046,68.1479 C336.453,68.1479 337.56,67.6557 338.369,66.6712 C339.177,65.6868 339.582,64.5617 339.582,63.2961 Z M410.039,64.0344 L408.457,59.9209 C405.996,61.1162 403.13,62.0479 399.86,62.7159 C396.591,63.3839 393.198,63.718 389.682,63.718 C384.057,63.718 379.135,62.8917 374.916,61.2393 C370.697,59.5869 367.146,57.3367 364.263,54.4889 C361.38,51.6411 359.218,48.2835 357.776,44.4161 C356.335,40.5487 355.614,36.4352 355.614,32.0756 C355.614,27.2941 356.37,22.8642 357.882,18.7858 C359.393,14.7075 361.644,11.1917 364.632,8.2384 C367.62,5.28512 371.312,2.98226 375.707,1.32983 C380.102,-0.322605 385.182,-1.14882 390.948,-1.14882 C394.323,-1.14882 397.505,-0.814819 400.493,-0.146815 C403.482,0.52119 406.031,1.38256 408.14,2.43731 L409.828,-1.88714 C408.632,-2.44967 406.488,-3.18799 403.394,-4.10211 C400.3,-5.01622 396.046,-5.47327 390.631,-5.47327 C383.951,-5.47327 378.098,-4.40095 373.07,-2.2563 C368.042,-0.111657 363.841,2.70099 360.466,6.18165 C357.091,9.66231 354.542,13.6176 352.819,18.0475 C351.096,22.4775 350.235,27.0129 350.235,31.6537 C350.235,37.8416 351.289,43.2208 353.399,47.7913 C355.508,52.3619 358.303,56.159 361.784,59.1826 C365.265,62.2062 369.273,64.4563 373.808,65.9329 C378.344,67.4096 383.002,68.1479 387.784,68.1479 C392.917,68.1479 397.399,67.7084 401.232,66.8294 C405.064,65.9505 408,65.0188 410.039,64.0344 Z M489.145,30.388 C489.145,25.2549 488.283,20.5086 486.56,16.149 C484.838,11.7894 482.412,8.00987 479.283,4.81048 C476.154,1.61109 472.427,-0.902715 468.102,-2.73094 C463.778,-4.55916 459.014,-5.47327 453.811,-5.47327 C448.748,-5.47327 444.019,-4.55916 439.624,-2.73094 C435.23,-0.902715 431.415,1.68141 428.18,5.02143 C424.946,8.36146 422.397,12.3519 420.533,16.9928 C418.67,21.6337 417.738,26.7316 417.738,32.2866 C417.738,37.49 418.635,42.2891 420.428,46.6838 C422.221,51.0786 424.7,54.8581 427.864,58.0223 C431.028,61.1866 434.772,63.6652 439.097,65.4583 C443.421,67.2513 448.115,68.1479 453.178,68.1479 C457.819,68.1479 462.301,67.3392 466.626,65.722 C470.95,64.1047 474.782,61.6964 478.122,58.497 C481.462,55.2976 484.134,51.3423 486.139,46.6311 C488.143,41.9199 489.145,36.5055 489.145,30.388 Z M483.66,30.8099 C483.66,35.5211 482.957,39.8983 481.55,43.9415 C480.144,47.9847 478.122,51.4829 475.486,54.4362 C472.849,57.3895 469.632,59.7099 465.835,61.3975 C462.038,63.0851 457.783,63.9289 453.072,63.9289 C448.431,63.9289 444.248,63.0499 440.521,61.292 C436.794,59.5341 433.647,57.1961 431.081,54.278 C428.514,51.3599 426.528,47.9847 425.122,44.1524 C423.715,40.3202 423.012,36.2946 423.012,32.0756 C423.012,27.716 423.645,23.5146 424.911,19.4714 C426.176,15.4282 428.092,11.8773 430.659,8.81851 C433.225,5.75975 436.407,3.31626 440.204,1.48804 C444.001,-0.340185 448.431,-1.2543 453.494,-1.2543 C458.557,-1.2543 462.969,-0.305026 466.731,1.59351 C470.493,3.49205 473.622,5.9707 476.118,9.02946 C478.615,12.0882 480.496,15.5161 481.761,19.3132 C483.027,23.1103 483.66,26.9425 483.66,30.8099 Z M457.819,30.8099 C457.819,29.4036 457.414,28.2258 456.606,27.2765 C455.797,26.3273 454.725,25.8526 453.389,25.8526 C452.053,25.8526 450.98,26.3273 450.172,27.2765 C449.363,28.2258 448.924,29.4036 448.853,30.8099 C448.853,32.0756 449.258,33.2007 450.066,34.1851 C450.875,35.1695 451.947,35.6618 453.283,35.6618 C454.69,35.6618 455.797,35.1695 456.606,34.1851 C457.414,33.2007 457.819,32.0756 457.819,30.8099 Z M504.966,63.2961 C504.966,61.8897 504.561,60.7119 503.753,59.7627 C502.944,58.8134 501.872,58.3388 500.536,58.3388 C499.2,58.3388 498.11,58.8134 497.266,59.7627 C496.422,60.7119 496,61.8897 496,63.2961 C495.93,64.5617 496.317,65.6868 497.161,66.6712 C498.004,67.6557 499.094,68.1479 500.43,68.1479 C501.837,68.1479 502.944,67.6557 503.753,66.6712 C504.561,65.6868 504.966,64.5617 504.966,63.2961 Z M572.786,62.5577 L553.695,62.5577 L522.263,62.5577 L522.263,62.2413 L570.993,-0.62145 L570.993,-4.20758 L519.521,-4.20758 L518.466,0.116871 L564.137,0.116871 L564.137,0.433295 L515.513,63.4015 L515.513,66.8822 L571.731,66.8822 L572.786,62.5577 Z M640.817,66.8822 L612.339,-4.20758 L607.276,-4.20758 L578.587,66.8822 L583.966,67.9369 L593.775,41.8847 L625.417,41.8847 L635.438,67.9369 L640.817,66.8822 Z M623.73,37.5603 L595.568,37.5603 L605.694,12.2464 C606.538,10.1369 607.258,8.2384 607.856,6.55081 C608.454,4.86322 609.034,3.10531 609.596,1.27709 L609.807,1.27709 C610.37,3.035 610.915,4.75775 611.442,6.44534 C611.969,8.13293 612.725,10.1721 613.71,12.5629 L623.73,37.5603 Z " fill="#4d4d4d" fill-opacity="1.00" />			<path d="M-516.425,-22.1392 C-508.547,-14.2617 -495.497,-14.4213 -487.424,-22.494 L-370.004,-139.914 C-361.932,-147.987 -361.772,-161.037 -369.65,-168.914 C-377.527,-176.792 -390.577,-176.632 -398.65,-168.559 L-516.07,-51.1395 C-524.143,-43.0668 -524.302,-30.0167 -516.425,-22.1392 Z " fill="#246206" fill-opacity="1.00" />			<path d="M-397.636,67.9397 L-280.216,-49.4803 C-272.143,-57.5529 -271.532,-70.1509 -278.857,-77.4758 C-286.182,-84.8008 -298.78,-84.189 -306.852,-76.1164 L-424.272,41.3036 C-432.345,49.3762 -432.956,61.9742 -425.632,69.2992 C-418.307,76.6241 -405.709,76.0124 -397.636,67.9397 Z " fill="#29650b" fill-opacity="1.00" />			<path d="M-412.26,-3.69593 L-282.778,-132.503 C-272.124,-143.157 -269.995,-158.462 -278.047,-166.514 C-286.099,-174.566 -301.404,-172.437 -312.058,-161.783 L-441.233,-31.9482 L-414.784,-29.2738 L-412.26,-3.69593 Z " fill="#286108" fill-opacity="1.00" />			<path d="M-482.444,-10.5241 C-488.3,-10.0081 -488.196,-2.73649 -482.533,2.53581 L-443.494,38.2877 C-437.638,43.6505 -430.342,43.0697 -430.385,37.238 L-430.527,-1.797 C-430.495,-7.55998 -437.777,-14.2291 -443.59,-13.7601 L-482.444,-10.5241 Z " fill="#b48803" fill-opacity="1.00" />			<g>				<path d="M-87.3637,576.365 C-79.4861,584.242 -66.436,584.082 -58.3634,576.01 L59.0566,458.59 C67.1292,450.517 67.2889,437.467 59.4113,429.59 C51.5338,421.712 38.4837,421.872 30.4111,429.944 L-87.0089,547.364 C-95.0815,555.437 -95.2412,568.487 -87.3637,576.365 Z " fill="#ef3f20" fill-opacity="1.00" />				<path d="M31.4251,666.444 L148.845,549.024 C156.918,540.951 157.529,528.353 150.205,521.028 C142.88,513.703 130.282,514.315 122.209,522.387 L4.78894,639.807 C-3.28369,647.88 -3.89543,660.478 3.42951,667.803 C10.7544,675.128 23.3524,674.516 31.4251,666.444 Z " fill="#0c279d" fill-opacity="1.00" />				<path d="M16.8013,594.808 L146.283,466 C156.937,455.346 159.066,440.042 151.014,431.99 C142.962,423.938 127.657,426.067 117.003,436.721 L-12.1717,566.556 L14.2774,569.23 L16.8013,594.808 Z " fill="#286108" fill-opacity="1.00" />				<path d="M-57.8004,583.548 C-64.6164,583.807 -64.9159,592.239 -58.6588,598.677 L-15.4874,642.365 C-9.01174,648.918 -0.523564,648.667 -0.235854,641.907 L1.8576,596.664 C2.22832,589.987 -5.8248,581.838 -12.5882,582.045 L-57.8004,583.548 Z " fill="#b48803" fill-opacity="1.00" />				<path d="M-48.2442,590.232 C-53.1697,590.502 -53.2845,596.603 -48.6824,601.182 L-16.9382,632.253 C-12.1765,636.913 -6.04174,636.629 -5.91525,631.737 L-4.94723,598.997 C-4.75969,594.165 -10.6812,588.369 -15.5693,588.6 L-48.2442,590.232 Z " fill="#000000" fill-opacity="1.00" />			</g>			<g>				<path d="M-483.461,568.142 C-475.583,576.019 -462.533,575.86 -454.46,567.787 L-337.04,450.367 C-328.968,442.294 -328.808,429.244 -336.686,421.367 C-344.563,413.489 -357.613,413.649 -365.686,421.722 L-483.106,539.142 C-491.179,547.214 -491.338,560.264 -483.461,568.142 Z " fill="#ef3f20" fill-opacity="1.00" />				<path d="M-364.672,658.221 L-247.252,540.801 C-239.179,532.728 -238.568,520.13 -245.893,512.805 C-253.217,505.48 -265.815,506.092 -273.888,514.165 L-391.308,631.585 C-399.381,639.657 -399.992,652.255 -392.668,659.58 C-385.343,666.905 -372.745,666.293 -364.672,658.221 Z " fill="#0c279d" fill-opacity="1.00" />				<g>					<path d="M-381.178,588.702 L-251.696,459.895 C-241.042,449.241 -238.913,433.936 -246.965,425.884 C-255.017,417.832 -270.322,419.961 -280.976,430.615 L-410.151,560.45 L-383.702,563.125 L-381.178,588.702 Z " fill="#286108" fill-opacity="1.00" />					<path d="M-407.538,558.317 C-410.895,558.461 -411.023,562.615 -407.927,565.771 L-386.564,587.191 C-383.36,590.404 -379.18,590.261 -379.053,586.93 L-378.125,564.642 C-377.958,561.353 -381.943,557.357 -385.273,557.475 L-407.538,558.317 Z " fill="#b48803" fill-opacity="1.00" />				</g>				<path d="M-444.341,582.009 C-449.267,582.279 -449.382,588.38 -444.779,592.96 L-413.035,624.03 C-408.274,628.691 -402.139,628.407 -402.012,623.515 L-401.044,590.774 C-400.857,585.942 -406.778,580.146 -411.666,580.377 L-444.341,582.009 Z " fill="#000000" fill-opacity="1.00" />			</g>		</g>	</svg>